<?xml version="1.0" encoding="utf-8"?>
<!-- Generator: Adobe Illustrator 21.0.2, SVG Export Plug-In . SVG Version: 6.00 Build 0)  -->
<svg version="1.1" id="Layer_1" xmlns="http://www.w3.org/2000/svg" xmlns:xlink="http://www.w3.org/1999/xlink" x="0px" y="0px"
	 viewBox="0 0 37.6 29.8" style="enable-background:new 0 0 37.6 29.8;" xml:space="preserve">
<style type="text/css">
	.st0{fill:#E27866;}
	.st1{fill:#FFFFFF;}
	.st2{fill:#E27866;stroke:#E27866;stroke-miterlimit:10;}
</style>
<path class="st2" d="M37.1,8.3C37.1,8.3,37.1,8.2,37.1,8.3c0-0.1,0-0.1-0.1-0.3l0,0c0,0,0,0,0,0c0,0-0.1-0.1-0.1-0.1
	c-0.1,0-0.1,0-0.2,0h0c0,0-0.1,0-0.1,0c-0.1,0-0.2,0.1-0.3,0.1c-3.6,1.4-7.4,2.5-11.2,3.2C23.4,9,22,6.6,20.8,4.1
	c-0.5-1-0.9-1.9-1.2-2.4c-0.1-0.3-0.2-0.5-0.3-0.7c0-0.1-0.1-0.1-0.1-0.2c0,0,0-0.1,0-0.1c0,0,0,0,0-0.1c0,0,0-0.1-0.4-0.2
	c-0.3,0-0.3,0.1-0.4,0.2c-0.1,0.1-0.2,0.3-0.2,0.4c-1.6,3.6-3.5,7-5.6,10.2C9.9,10.7,7.3,10,4.7,9.2C3.6,8.8,2.7,8.5,2.1,8.3
	C1.8,8.2,1.6,8.1,1.4,8C1.3,8,1.2,7.9,1.1,7.9l0,0c0,0-0.1,0-0.1,0h0c-0.1,0-0.1,0-0.2,0c0,0,0,0,0,0C0.7,8,0.7,8,0.6,8
	c0,0-0.1,0.1-0.1,0.1c0,0.1-0.1,0.1-0.1,0.2c0,0,0,0,0,0c0,0.2,0.1,0.3,0.1,0.5c1.5,3.9,2.6,7.8,3.4,11.9c0.8,3.4,2.3,6.5,5.3,7.9
	c1,0.5,2.1,0.7,3.3,0.7c2.3,0,4.5-0.9,6.2-2.5c1.7,1.6,3.9,2.5,6.2,2.5c1.1,0,2.3-0.2,3.3-0.7c3-1.3,4.4-4.4,5.3-7.8
	c0.5-2.9,1.3-5.8,2.2-8.7c0.4-1.1,0.7-1.9,0.9-2.6C36.8,9.2,36.9,9,37,8.8c0-0.1,0.1-0.2,0.1-0.3C37.1,8.4,37.1,8.4,37.1,8.3
	L37.1,8.3L37.1,8.3L37.1,8.3C37.1,8.3,37.1,8.3,37.1,8.3z M24.6,12.4c1.3,1.8,2,4,2.1,6.2c0,0.8-0.1,1.5-0.4,2.2
	c-1.1,2.7-3.6,4.5-6.5,4.8c1.3-1.6,2-3.6,2-5.7c0-1.1-0.2-2.3-0.7-3.3c-0.4-0.9-1-1.7-1.7-2.3c1.5-1,3.2-1.7,4.9-2.1l0,0l0.1,0
	C24.6,12.3,24.6,12.4,24.6,12.4L24.6,12.4z M13,12.3l0.1,0c1.8,0.4,3.4,1.1,4.9,2.1c-0.7,0.6-1.3,1.4-1.7,2.3
	c-0.5,1-0.7,2.1-0.7,3.3c0,2.1,0.7,4.1,2,5.7c-2.9-0.3-5.4-2.1-6.5-4.8c-0.3-0.7-0.4-1.5-0.4-2.2C11,16.4,11.7,14.2,13,12.3
	C13,12.3,13,12.3,13,12.3L13,12.3z M20.4,17.1C20.8,18,21,19,21,20c0,2.1-0.8,4-2.2,5.5C17.4,24,16.6,22,16.6,20c0-1,0.2-2,0.6-2.9
	c0.4-0.8,0.9-1.5,1.6-2.1C19.5,15.5,20,16.3,20.4,17.1L20.4,17.1z M18.8,2.1L18.8,2.1c1.5,3.3,3.2,6.4,5.2,9.4
	c-1.9,0.4-3.6,1.2-5.2,2.3c-1.6-1.1-3.3-1.9-5.2-2.3c1.5-2.2,2.8-4.5,4-6.9C18.1,3.5,18.5,2.7,18.8,2.1z M9.7,27.8
	c-2.6-1.1-4-3.9-4.8-7.2c-0.5-3-1.3-5.9-2.2-8.7c-0.4-1.1-0.7-2-0.9-2.6c0,0,0-0.1,0-0.1c3.4,1.3,6.8,2.3,10.3,3
	c-1.3,1.9-2,4.2-2.2,6.5c0,0.9,0.2,1.7,0.5,2.6c1.2,3,4,5.1,7.3,5.4c-1.4,1.1-3.2,1.8-5.1,1.8C11.6,28.4,10.6,28.2,9.7,27.8
	L9.7,27.8z M32.7,20.6c-0.8,3.3-2.2,6.1-4.8,7.2C27,28.2,26,28.4,25,28.4c-1.8,0-3.6-0.6-5.1-1.8c3.2-0.3,6.1-2.4,7.3-5.4
	c0.3-0.8,0.5-1.7,0.5-2.6c-0.1-2.3-0.9-4.6-2.2-6.5c2.6-0.5,5.1-1.2,7.7-2c1.1-0.4,2-0.7,2.6-0.9l0.1,0
	C34.4,12.8,33.4,16.7,32.7,20.6L32.7,20.6z"/>
</svg>
